<?xml version="1.0" encoding="UTF-8"?>
<svg width="156px" height="51px" viewBox="0 0 156 51" version="1.1" xmlns="http://www.w3.org/2000/svg" xmlns:xlink="http://www.w3.org/1999/xlink">
    <!-- Generator: sketchtool 59.1 (101010) - https://sketch.com -->
    <title>529A97EA-967C-40BE-8973-41F9162AFB5D</title>
    <desc>Created with sketchtool.</desc>
    <g id="Page-1" stroke="none" stroke-width="1" fill="none" fill-rule="evenodd">
        <g id="Smiles---menu" transform="translate(-1052.000000, -2999.000000)">
            <g id="Group-2" transform="translate(-0.000000, 2585.000000)">
                <g id="app-store" transform="translate(1052.003961, 414.000000)">
                    <path d="M9.96899928,50.9973335 C9.56785996,50.9973335 9.17641076,50.9921337 8.7784181,50.9830676 C7.95394406,50.9721891 7.13139701,50.8995053 6.31752293,50.7656123 C5.5586264,50.6332567 4.82345967,50.3870513 4.13627194,50.0351171 C3.45538535,49.6860989 2.83436205,49.2284564 2.29699261,48.6797213 C1.75184487,48.13745 1.29798447,47.5085078 0.953397088,46.8178187 C0.605012647,46.1226405 0.363909882,45.3774934 0.238487514,44.6083342 C0.103042245,43.7818639 0.0297607423,42.9461721 0.0192749101,42.1084649 C0.0109277154,41.8272796 -1.13686838e-13,40.8910619 -1.13686838e-13,40.8910619 L-1.13686838e-13,10.0919257 C-1.13686838e-13,10.0919257 0.0116386752,9.17009385 0.0193407397,8.89926801 C0.0293808437,8.06288781 0.102236213,7.22849284 0.237276249,6.40330519 C0.36293013,5.63203895 0.604219547,4.88474308 0.952791455,4.18728772 C1.29611239,3.49707561 1.74745305,2.86766378 2.28931688,2.32345185 C2.83057166,1.77406913 3.4535815,1.31407012 4.13562681,0.960229792 C4.82123518,0.609426272 5.55501255,0.364957644 6.31237505,0.235014378 C7.12892203,0.099776301 7.95432464,0.0266600518 8.78165692,0.0162791488 L9.96964441,0 L145.273917,0 L146.476098,0.016932448 C147.295905,0.0267975291 148.113809,0.0992614844 148.922853,0.23370778 C149.687882,0.365280991 150.429307,0.611455407 151.122747,0.964136254 C152.48913,1.67722703 153.600931,2.80540391 154.302317,4.19054089 C154.645325,4.88318142 154.882893,5.62438159 155.006957,6.38898594 C155.143605,7.22094428 155.220083,8.06189625 155.235781,8.90513437 C155.239599,9.28271463 155.239599,9.68829342 155.239599,10.0919257 C155.25,10.5918995 155.25,11.0677813 155.25,11.5475695 L155.25,39.4510039 C155.25,39.9353785 155.25,40.4080205 155.239599,40.8845289 C155.239599,41.3181062 155.239599,41.7152855 155.234464,42.1240641 C155.219106,42.952255 155.143903,43.7781966 155.009459,44.5952682 C154.886607,45.3699759 154.646817,46.1209393 154.298499,46.8218185 C153.951476,47.5050109 153.500221,48.1285051 152.961368,48.6693219 C152.423515,49.2210059 151.801396,49.6813259 151.118929,50.0325839 C150.42741,50.3872236 149.687076,50.6343395 148.922853,50.7656123 C148.10904,50.9002198 147.286414,50.9729083 146.461879,50.9830676 C146.076249,50.9921337 145.67245,50.9973335 145.280369,50.9973335 L143.853183,51 L9.96899928,50.9973335 Z" id="Path" fill="#231F20" fill-rule="nonzero"></path>
                    <text id="Disponível-na" font-family="SFProDisplay-Medium, SF Pro Display" font-size="12.5" font-weight="400" fill="#BBBCBC">
                        <tspan x="48.9960385" y="16">Disponível na</tspan>
                    </text>
                    <g id="_Group_" transform="translate(14.346038, 7.200000)" fill="#FFFFFF" fill-rule="nonzero">
                        <g id="_Group_2">
                            <g id="_Group_3">
                                <path d="M20.6954069,16.6079925 C20.7250158,14.2465396 21.9298361,12.0652756 23.8877571,10.8284096 C22.646982,9.00755105 20.6432686,7.89447624 18.4810709,7.82496307 C16.2062627,7.57961274 14.0009352,9.22366595 12.8417345,9.22366595 C11.6601006,9.22366595 9.87532895,7.84932271 7.95342457,7.8899546 C5.42469955,7.97390268 3.12439096,9.41541877 1.8941148,11.687094 C-0.725808001,16.3480264 1.2284187,23.1980277 3.73808528,26.9655737 C4.9937246,28.8104338 6.46120649,30.8711901 8.3813769,30.7981111 C10.260379,30.7180305 10.9621499,29.566933 13.2302661,29.566933 C15.4773308,29.566933 16.1357388,30.7981111 18.0948694,30.7516469 C20.1111262,30.7180166 21.3814636,28.8985879 22.5930492,27.0362584 C23.495224,25.7217281 24.1894461,24.2688859 24.6500002,22.7315475 C22.2552994,21.6908079 20.6982019,19.2796946 20.6954069,16.6079925 L20.6954069,16.6079925 Z" id="_Path_"></path>
                                <path d="M17.1021067,5.66621813 C18.2149761,4.30809009 18.7632445,2.56244659 18.6304795,0.800000191 C16.9302626,0.981538505 15.3597385,1.80761586 14.2318344,3.11363615 C13.1180811,4.40220069 12.5538562,6.08798808 12.6634326,7.7996966 C14.3864474,7.81773154 16.0224135,7.03139344 17.1021067,5.66621813 L17.1021067,5.66621813 Z" id="_Path_2"></path>
                            </g>
                        </g>
                        <g id="Group" transform="translate(35.650000, 14.800000)">
                            <path d="M9.82165684,11.4929467 L3.9181863,11.4929467 L2.50047535,15.75 L0,15.75 L5.59167191,0 L8.18957809,0 L13.78125,15.75 L11.2381331,15.75 L9.82165684,11.4929467 Z M4.52959847,9.52853439 L9.20907231,9.52853439 L6.90224885,2.61965192 L6.83769406,2.61965192 L4.52959847,9.52853439 Z" id="Shape"></path>
                            <path d="M25.59375,9.93361365 C25.59375,13.582151 23.6818162,15.9262702 20.7965593,15.9262702 C19.3051952,16.005952 17.9004117,15.208113 17.179761,13.8721298 L17.1251655,13.8721298 L17.1251655,19.6875 L14.765625,19.6875 L14.765625,4.06251966 L17.0495698,4.06251966 L17.0495698,6.01532773 L17.0929669,6.01532773 C17.8456333,4.68772003 19.2519316,3.89022452 20.7531622,3.93967324 C23.6706051,3.93968621 25.59375,6.29520437 25.59375,9.93361365 Z M23.1684917,9.93361365 C23.1684917,7.55656852 21.9657787,5.99380075 20.130723,5.99380075 C18.327904,5.99380075 17.1152749,7.58948145 17.1152749,9.93361365 C17.1152749,12.2992728 18.327904,13.8835546 20.130723,13.8835546 C21.9657914,13.8835546 23.1684917,12.3321987 23.1684917,9.93361365 Z" id="Shape"></path>
                            <path d="M38.390625,9.93360603 C38.390625,13.5821462 36.4786912,15.9262673 33.5934343,15.9262673 C32.1020702,16.0059491 30.6972867,15.2081095 29.976636,13.8721252 L29.9220405,13.8721252 L29.9220405,19.6875 L27.5625,19.6875 L27.5625,4.06250744 L29.846394,4.06250744 L29.846394,6.01531703 L29.8897911,6.01531703 C30.642463,4.6877091 32.0487667,3.89021766 33.5499992,3.93967389 C36.4675309,3.93967389 38.390625,6.29519389 38.390625,9.93360603 Z M35.9653794,9.93360603 C35.9653794,7.55655903 34.7626537,5.99379004 32.927598,5.99379004 C31.124779,5.99379004 29.9121499,7.58947199 29.9121499,9.93360603 C29.9121499,12.2992671 31.124779,13.8835501 32.927598,13.8835501 C34.7626664,13.8835501 35.9653794,12.332193 35.9653794,9.93360603 L35.9653794,9.93360603 Z" id="Shape"></path>
                            <path d="M46.6555315,11.2492338 C46.826259,12.7607158 48.3094935,13.7531303 50.3363409,13.7531303 C52.2784568,13.7531303 53.6757075,12.7606667 53.6757075,11.3978106 C53.6757075,10.2147563 52.8329928,9.50638677 50.8376128,9.02092542 L48.8422329,8.54506234 C46.0150365,7.86903483 44.7025296,6.56012293 44.7025296,4.43614363 C44.7025296,1.8063404 47.0175681,0 50.304861,0 C53.5582316,0 55.7885386,1.8063404 55.8636116,4.43614363 L53.53765,4.43614363 C53.3984147,2.91507559 52.128286,1.99693111 50.2721413,1.99693111 C48.4159967,1.99693111 47.1458804,2.92587671 47.1458804,4.27793173 C47.1458804,5.35550323 47.9571153,5.9895782 49.9415969,6.47497818 L51.6379123,6.88731102 C54.796875,7.62686877 56.109375,8.88306382 56.109375,11.1124891 C56.109375,13.9640344 53.8149181,15.75 50.1655885,15.75 C46.7511488,15.75 44.445806,14.005987 44.296875,11.2491233 L46.6555315,11.2492338 Z" id="Path"></path>
                            <path d="M60.9269903,1.96875 L60.9269903,4.59366675 L63,4.59366675 L63,6.39665076 L60.9269903,6.39665076 L60.9269903,12.5114799 C60.9269903,13.4614254 61.3420666,13.9040979 62.253337,13.9040979 C62.499437,13.8997315 62.7451387,13.882147 62.9894163,13.8514178 L62.9894163,15.643633 C62.579708,15.7215255 62.1632741,15.7568028 61.7465472,15.7489197 C59.5395013,15.7489197 58.6787774,14.9054494 58.6787774,12.7543109 L58.6787774,6.39665076 L57.09375,6.39665076 L57.09375,4.59366675 L58.6787533,4.59366675 L58.6787533,1.96875 L60.9269903,1.96875 Z" id="Path"></path>
                            <path d="M64.96875,9.84375 C64.96875,6.2166929 67.0838909,3.9375 70.3822011,3.9375 C73.6915803,3.9375 75.796875,6.21664197 75.796875,9.84375 C75.796875,13.480764 73.702662,15.75 70.3822011,15.75 C67.0629126,15.75 64.96875,13.4807513 64.96875,9.84375 Z M73.4096338,9.84375 C73.4096338,7.35566546 72.2806501,5.887185 70.3821884,5.887185 C68.4837268,5.887185 67.3559786,7.36685745 67.3559786,9.84375 C67.3559786,12.3417787 68.4837268,13.7990799 70.3821884,13.7990799 C72.2806501,13.7990799 73.4096338,12.3417787 73.4096338,9.84375 L73.4096338,9.84375 Z" id="Shape"></path>
                            <path d="M77.765625,4.06185936 L80.0267118,4.06185936 L80.0267118,6.05125869 L80.0815656,6.05125869 C80.3968807,4.77059211 81.5564092,3.88919287 82.8596304,3.93955197 C83.132833,3.93858661 83.4052819,3.96861288 83.671875,4.02906848 L83.671875,6.27315224 C83.3269733,6.1664958 82.9671816,6.11752633 82.6066906,6.12817525 C81.909726,6.09956125 81.2352189,6.3806582 80.7602749,6.89765835 C80.2853309,7.41465849 80.0574,8.11591017 80.1363301,8.81728544 L80.1363301,15.75 L77.765625,15.75 L77.765625,4.06185936 Z" id="Path"></path>
                            <path d="M94.3644669,12.2211752 C94.0371557,14.3138477 91.941591,15.75 89.2604533,15.75 C85.8121766,15.75 83.671875,13.5031353 83.671875,9.89846214 C83.671875,6.28259703 85.8236848,3.9375 89.1581751,3.9375 C92.4376771,3.9375 94.5,6.1284048 94.5,9.62366637 L94.5,10.4343788 L86.1279927,10.4343788 L86.1279927,10.5773663 C86.0498274,11.4355863 86.3545465,12.2851051 86.9646395,12.9098325 C87.5747325,13.5345599 88.4313968,13.8742831 89.3167247,13.8425874 C90.4974573,13.9501776 91.6106571,13.2908028 92.0541206,12.2211625 L94.3644669,12.2211752 Z M86.1394779,8.7806385 L92.0656158,8.7806385 C92.1097707,8.0094577 91.8211228,7.25533621 91.2692151,6.69994937 C90.7173075,6.14456253 89.952181,5.83826673 89.1581751,5.85485683 C88.3578882,5.85021226 87.5888494,6.15665168 87.0219918,6.7060632 C86.4551342,7.25547471 86.1374275,8.00233433 86.1394779,8.7806385 L86.1394779,8.7806385 Z" id="Shape"></path>
                        </g>
                    </g>
                </g>
            </g>
        </g>
    </g>
</svg>