<?xml version="1.0" encoding="UTF-8"?>
<svg width="24px" height="24px" viewBox="0 0 24 24" version="1.1" xmlns="http://www.w3.org/2000/svg" xmlns:xlink="http://www.w3.org/1999/xlink">
    <!-- Generator: sketchtool 59.1 (101010) - https://sketch.com -->
    <title>E36AC6F1-06FE-4872-B9B3-64271875E0FF</title>
    <desc>Created with sketchtool.</desc>
    <g id="Page-1" stroke="none" stroke-width="1" fill="none" fill-rule="evenodd">
        <g id="Smiles---menu" transform="translate(-957.000000, -3191.000000)" fill="#231F20">
            <g id="Group-2" transform="translate(-0.000000, 2585.000000)">
                <g id="Group-8" transform="translate(937.000000, 586.000000)">
                    <path d="M32,20 C38.627417,20 44,25.372583 44,32 C44,38.627417 38.627417,44 32,44 C25.372583,44 20,38.627417 20,32 C20,25.372583 25.372583,20 32,20 Z M33.4136645,26 C31.8437919,26 30.769437,26.9550537 30.769437,28.7097863 L30.769437,28.7097863 L30.769437,30.2228109 L29,30.2228109 L29,32.2788955 L30.769437,32.2788955 L30.769437,38.9996102 C30.7506702,38.9999513 31.0684181,39.0000271 31.4637852,38.9999923 L32.8980395,38.9996102 L32.8980395,32.2788955 L34.6740114,32.2788955 L34.940181,30.2228109 L32.8980395,30.2228109 L32.8980395,28.9132772 C32.8980395,28.3194698 33.0634216,27.9147436 33.9174765,27.9147436 L33.9174765,27.9147436 L35,27.9147436 L35,26.08082 C34.8116203,26.0558848 34.1654239,26 33.4136645,26 Z" id="facebook"></path>
                </g>
            </g>
        </g>
    </g>
</svg>