<?xml version="1.0" encoding="UTF-8"?>
<svg width="167px" height="70px" viewBox="0 0 167 70" version="1.1" xmlns="http://www.w3.org/2000/svg" xmlns:xlink="http://www.w3.org/1999/xlink">
    <!-- Generator: sketchtool 59.1 (101010) - https://sketch.com -->
    <title>3287A7CC-3DCB-46A5-9C18-9D3C735A893A</title>
    <desc>Created with sketchtool.</desc>
    <defs>
        <polygon id="path-1" points="4.97544838e-05 0.0655705937 166.870559 0.0655705937 166.870559 69.6057095 4.97544838e-05 69.6057095"></polygon>
        <polygon id="path-3" points="0.0430376264 0.247150714 45.6670536 0.247150714 45.6670536 19.0205158 0.0430376264 19.0205158"></polygon>
    </defs>
    <g id="Page-1" stroke="none" stroke-width="1" fill="none" fill-rule="evenodd">
        <g id="Smiles---menu" transform="translate(-123.000000, -2656.000000)">
            <g id="Group-2" transform="translate(-0.000000, 2585.000000)">
                <g id="gol+smiles" transform="translate(123.000000, 71.000000)">
                    <g id="Group-15">
                        <g id="Group-8" transform="translate(0.000000, 0.186624)">
                            <g id="Group-3">
                                <mask id="mask-2" fill="white">
                                    <use xlink:href="#path-1"></use>
                                </mask>
                                <g id="Clip-2"></g>
                                <path d="M133.769706,0.0962878949 L133.769706,0.0655201537 L132.572364,0.0655201537 L132.571867,0.0655201537 L34.2988007,0.0655201537 L32.6103823,0.0655201537 L32.6103823,0.108897625 C14.4522347,1.00141431 4.97544838e-05,16.2067311 4.97544838e-05,34.8355897 L4.97544838e-05,34.8358419 C4.97544838e-05,53.4647004 14.4522347,68.6700172 32.6103823,69.5625339 L32.6103823,69.6059114 L34.2988007,69.6059114 L132.571867,69.6059114 L132.572364,69.6059114 L133.769706,69.6059114 L133.769706,69.5753959 C152.156227,68.9345694 166.870618,53.6316532 166.870618,34.8358419 L166.870618,34.8355897 C166.870618,16.0397783 152.156227,0.737114374 133.769706,0.0962878949" id="Fill-1" fill="#FF5A00" mask="url(#mask-2)"></path>
                            </g>
                            <path d="M34.2985259,66.2753262 L34.2985259,66.2753262 C17.2675667,66.2753262 3.46144424,52.279283 3.46144424,35.0140413 C3.46144424,17.7490518 17.2675667,3.7527564 34.2985259,3.7527564 C51.3294851,3.7527564 65.1356075,17.7490518 65.1356075,35.0140413 C65.1356075,52.279283 51.3294851,66.2753262 34.2985259,66.2753262" id="Fill-4" fill="#FFFFFF"></path>
                            <path d="M150.374065,31.4298776 C150.362622,31.3506885 150.309633,31.2871355 150.236743,31.2656989 C150.161614,31.2399751 150.083002,31.2641858 150.029764,31.3204251 C150.029764,31.3204251 149.984985,31.3708641 149.890949,31.467959 C149.795918,31.5673236 149.653621,31.7120833 149.461817,31.8982029 C149.081444,32.2704422 148.511507,32.8000508 147.753248,33.4373465 C147.214905,33.890288 146.583769,34.3964425 145.857603,34.9404262 C145.844169,34.7242955 145.812824,34.5200179 145.766054,34.3301153 C145.574748,33.533937 145.120739,32.9314442 144.561498,32.4482393 C143.721394,31.7211623 142.6462,31.2460277 141.761814,30.7262547 C141.321735,30.4677552 140.927182,30.1989158 140.637362,29.8970389 C140.349533,29.5976839 140.162456,29.2695788 140.103497,28.8627889 C140.092551,28.7894003 140.087327,28.7114721 140.087327,28.6330396 C140.088322,28.2143966 140.245048,27.7770912 140.578901,27.4474729 C140.756027,27.2704323 141.293873,26.9133247 142.04417,26.9133247 C142.982042,26.9133247 143.77289,27.3342375 144.217944,27.3342375 C144.719718,27.3392814 145.153328,27.0429528 145.284182,26.545625 C145.309806,26.4475213 145.322991,26.3509308 145.322991,26.250053 C145.322991,25.6821108 144.864006,25.1615811 144.237597,24.99942 C144.237597,24.99942 143.672137,24.8044736 142.474795,24.8044736 C140.810259,24.8044736 139.44823,25.224882 138.48971,25.958516 C137.530941,26.6921501 136.988618,27.7501064 136.990857,28.9636667 C136.990857,29.3000943 137.029416,29.6448443 137.11176,29.9981689 C137.469743,31.4974657 138.915609,32.3082713 140.249775,33.0393834 C140.920217,33.4002739 141.571254,33.7404844 142.062082,34.1096973 C142.557637,34.4814321 142.874324,34.8690552 142.937512,35.3182137 C142.950199,35.3933677 142.956668,35.4720524 142.956668,35.5451889 C142.95418,35.9577792 142.793224,36.3403584 142.446435,36.639209 C142.096413,36.9337722 141.550108,37.1428416 140.772446,37.1579732 L140.699804,37.1579732 C139.852486,37.1579732 139.127314,36.9095616 138.651661,36.6977181 C138.443687,36.5955793 138.230241,36.5461492 138.032218,36.5461492 C137.521239,36.5393399 137.100068,36.8931689 137.034143,37.4036108 C137.027426,37.4535453 137.024938,37.5029754 137.024938,37.5541709 C137.024938,37.9185921 137.216493,38.2252607 137.479446,38.4580363 C137.873252,38.8126219 138.435478,39.0484239 138.970836,39.2100806 C133.086374,42.217501 124.91221,44.9336367 114.575219,44.9336367 L114.575219,44.9346455 L114.575219,44.9336367 C104.140212,44.9336367 95.9070895,42.1652968 90.0104372,39.12383 C91.2264367,38.8870193 92.2061024,38.3841433 92.9382396,37.7092706 C93.972884,36.750679 94.4995352,35.4498593 94.4995352,34.0996095 C94.4995352,33.7889058 94.4714239,33.4764367 94.4164452,33.1642198 C94.2331,32.1249259 93.6785863,31.3037803 92.9685898,30.629412 C91.8998636,29.6193727 90.4699198,28.9094449 89.2802902,28.1947254 C88.6842315,27.8424096 88.151361,27.4873196 87.751335,27.1060014 C87.3523041,26.7289705 87.0960685,26.331764 87.0194466,25.8838664 C86.998301,25.7625608 86.9861111,25.6364636 86.9861111,25.5091053 C86.9890964,24.9313275 87.2032894,24.3205122 87.68143,23.8486561 C88.1578291,23.3788176 88.9029025,23.0391115 90.0002375,23.0378505 C90.5928134,23.0378505 91.2898737,23.1372152 92.0924134,23.3765479 C92.3284984,23.4456492 92.5414476,23.4796954 92.7387241,23.4814608 C93.2907501,23.4900354 93.7017221,23.1780707 93.870141,22.7309297 C93.9320854,22.5717949 93.964177,22.409886 93.964177,22.2570561 C93.964177,21.8722072 93.7659054,21.5461196 93.4887729,21.3191444 C93.2123868,21.0904039 92.8516668,20.9373218 92.4757717,20.8583849 C91.7244791,20.7017721 90.9062666,20.5968591 90.0519822,20.5958504 L90.0298415,20.5958504 C87.7423792,20.5958504 86.0833161,21.2507997 84.9936929,22.2272971 C83.9055625,23.2068209 83.3993106,24.5013357 83.4005545,25.7317931 C83.4005545,26.0071896 83.4241879,26.2775422 83.4734448,26.5420943 C83.8110289,28.3455378 85.2705766,29.4957973 86.7587331,30.432448 C88.2543528,31.3605241 89.8101754,32.1150903 90.4042439,32.9672558 C90.7261554,33.4232236 90.8811406,33.9709902 90.8798968,34.4983291 C90.8811406,35.0370168 90.7176971,35.5487196 90.4219068,35.9149061 C89.8589348,36.6076846 88.7979205,37.0765144 87.6558064,37.0727315 C86.9336201,37.0727315 86.1865566,36.890647 85.5039251,36.4770479 C85.4648679,36.4523328 85.360881,36.3960934 85.349935,36.3870144 C83.7142565,35.3008123 82.3940213,34.2763979 81.3979366,33.4373465 C80.6391808,32.8000508 80.0692432,32.2704422 79.6883727,31.8982029 C79.4980618,31.7120833 79.355764,31.5673236 79.2612305,31.467959 C79.1676921,31.3708641 79.1224155,31.3204251 79.1206741,31.3204251 C79.0684319,31.2641858 78.9878296,31.2399751 78.9156856,31.2656989 C78.8425465,31.2871355 78.789558,31.3506885 78.778612,31.4298776 C78.7395548,31.7188926 78.7097021,32.0858357 78.7097021,32.511288 L78.7097021,32.6088873 L78.7097021,32.6394028 C78.731594,33.7389712 79.0955481,34.5873538 80.0739699,35.5136645 C80.3103037,35.7603108 93.4663834,49.4285008 114.575219,49.4322838 L114.575219,49.4285008 L114.575219,49.4322838 C135.684304,49.4285008 148.841628,35.7603108 149.077713,35.5136645 C150.057378,34.5873538 150.421083,33.7389712 150.440985,32.6394028 L150.440985,32.6088873 L150.440985,32.511288 C150.440985,32.0858357 150.414118,31.7188926 150.374065,31.4298776 M117.086829,25.5050702 C116.783327,25.293479 116.400217,25.1981494 116.019844,25.1981494 C115.633998,25.1981494 115.243425,25.2975141 114.935694,25.5050702 C114.62647,25.7075825 114.397848,26.0475408 114.40056,26.4745062 L114.40056,37.9647439 C114.399589,38.3995274 114.617514,38.7478081 114.920768,38.9553642 C115.224767,39.1654423 115.606633,39.2595109 115.986509,39.2607719 C116.374345,39.2595109 116.765415,39.1641814 117.072898,38.9553642 C117.380878,38.7513388 117.610495,38.4101195 117.607783,37.9859282 C117.607783,37.9859282 117.606017,26.8094206 117.606017,26.493673 C117.608753,26.0591417 117.389087,25.7113654 117.086829,25.5050702 M96.0859571,38.9553647 C96.3872205,39.1654428 96.7733153,39.2595114 97.1512006,39.2607723 C97.5397831,39.2595114 97.9291119,39.1641818 98.238336,38.9553647 C98.5455699,38.7513393 98.7744405,38.41012 98.7702114,37.9859287 C98.7702114,37.9859287 98.7754356,30.3951235 98.7754356,30.3593118 C98.8005616,29.7739682 98.9500738,28.9851035 99.2906432,28.3684877 C99.6366856,27.74935 100.136221,27.3135577 100.912142,27.3092704 C101.271867,27.3092704 101.518151,27.4230101 101.716672,27.6078688 C102.017686,27.8857872 102.194066,28.3493209 102.286609,28.8191594 C102.376914,29.2895024 102.387611,29.754297 102.387611,30.0206145 C102.387611,30.0829066 102.38786,37.7602145 102.38786,37.9647443 C102.386616,38.4078502 102.621457,38.7566353 102.941378,38.9604086 C103.264285,39.1664516 103.66655,39.2595114 104.068815,39.2607723 C104.479289,39.2595114 104.890012,39.1641818 105.218392,38.9604086 C105.54503,38.7578963 105.790817,38.4186946 105.789573,37.9859287 L105.789573,30.353007 C105.815197,29.7664023 105.962968,28.9830859 106.304781,28.3684877 C106.648336,27.74935 107.146627,27.3135577 107.924041,27.3092704 C108.281527,27.3092704 108.528806,27.4230101 108.731307,27.6078688 C109.030332,27.8857872 109.207458,28.3493209 109.298508,28.8191594 C109.388813,29.2895024 109.400505,29.7565668 109.398017,30.0206145 C109.398017,30.0829066 109.400505,37.4747302 109.400505,37.9647443 C109.398017,38.4078502 109.632361,38.7566353 109.953775,38.9604086 C110.275686,39.1664516 110.677702,39.2595114 111.080714,39.2607723 C111.492432,39.2595114 111.903653,39.1641818 112.231286,38.9604086 C112.556929,38.7578963 112.805204,38.4186946 112.802245,37.9859287 L112.802245,30.4970101 C112.801224,28.6002545 112.43926,27.185695 111.755385,26.2298775 C111.07549,25.272799 110.06622,24.8044736 108.874351,24.8107157 C107.727262,24.8095175 106.853573,25.37519 106.239852,26.0220692 C105.819177,26.4659317 105.513934,26.9443448 105.31193,27.3226367 C105.03032,26.5640354 104.625567,25.9703693 104.111355,25.5522306 C103.493653,25.0503634 102.725444,24.8095175 101.861457,24.8107157 C100.390964,24.8120395 99.3859231,25.7262449 98.7702114,26.571349 L98.7702114,26.4936731 C98.7731966,26.0591418 98.5562671,25.7113654 98.2515209,25.5050702 C97.947521,25.293479 97.5664017,25.1981494 97.1857799,25.1981494 C96.7986901,25.1981494 96.4093613,25.2975141 96.0978982,25.5050702 C95.7909131,25.7075825 95.5630375,26.0475408 95.5652601,26.4745063 C95.5652601,26.4782892 95.5665204,37.650762 95.5665204,37.9647443 C95.5635351,38.3995278 95.7819573,38.7478085 96.0859571,38.9553647 M127.236989,37.8154456 C128.290043,38.8388513 129.728445,39.4622764 131.529806,39.4622764 L131.53503,39.4622764 C132.512457,39.4622764 133.420228,39.2875055 134.100372,38.9994993 C134.440195,38.8547396 134.726781,38.6807253 134.934754,38.4734213 C135.14223,38.2701525 135.281543,38.0177057 135.281543,37.7387785 C135.281543,37.6946444 135.278807,37.6507625 135.271841,37.6051153 C135.201936,37.1254412 134.820319,36.805154 134.383226,36.8109545 C134.27501,36.8109545 134.16754,36.8275994 134.058578,36.864672 C133.527449,37.0369209 133.012241,37.1347724 132.379613,37.1347724 C132.206467,37.1347724 132.020385,37.1277109 131.823855,37.1105617 C130.492674,37.0041356 129.712524,36.1847553 129.237866,35.3527653 C129.002527,34.9368964 128.85202,34.5200188 128.76072,34.1977141 C128.720668,34.0572417 128.694298,33.9379536 128.672655,33.8421197 C130.489191,33.762174 132.063174,33.5430169 133.547102,32.7417946 C134.30934,32.3057502 135.246715,31.6066667 135.73406,30.6321868 C136.035821,29.9981696 136.197274,29.2721013 136.198269,28.6085773 C136.198269,28.4002646 136.180358,28.2007786 136.148266,28.0106239 C135.838793,26.2182769 134.214558,24.8604611 131.695986,24.8694949 C129.942887,24.8694949 127.691248,25.5751806 126.31877,27.7420366 C125.790129,28.5901671 125.078889,30.2122828 125.078889,32.2603551 C125.078889,32.7498648 125.121926,33.2648462 125.21447,33.7939505 C125.517226,35.3787414 126.185926,36.7900224 127.236989,37.8154456 M129.362005,28.0487051 L129.364493,28.0487051 C130.166784,26.8729739 131.01261,26.7330059 131.406417,26.7289708 L131.412139,26.7289708 C132.057205,26.7350235 132.718194,27.1675372 132.906514,28.1992653 C132.937362,28.3727751 132.95005,28.5394758 132.95005,28.7034022 C132.95005,29.4155998 132.684361,30.0307023 132.280105,30.5012974 C131.319098,31.5925434 129.978961,31.9037516 128.563943,32.0560771 C128.561704,31.9287188 128.559212,31.7990908 128.559212,31.6687062 C128.558221,30.3951235 128.730621,28.9596319 129.362005,28.0487051 M122.797645,39.4766503 L122.80884,39.4766503 C123.46535,39.4766503 124.044244,39.3081843 124.498751,39.0877662 C124.951517,38.8681047 125.271936,38.6113706 125.429657,38.3833867 C125.530908,38.2353485 125.596584,38.0560382 125.596584,37.860083 C125.596584,37.7198628 125.563746,37.5700592 125.494338,37.4227775 C125.328158,37.0860978 124.980374,36.9236845 124.668911,36.9193972 C124.61045,36.9193972 124.556218,36.9236845 124.498751,36.9388161 C124.327844,36.9834546 124.211916,37.0442335 124.092257,37.0840802 C123.973095,37.1254401 123.844977,37.1564601 123.623819,37.1564601 C123.263099,37.1551991 123.046169,37.0114482 122.90213,36.8646709 C122.875511,36.8351642 122.65485,36.5539672 122.573501,36.2039211 C122.438418,35.6213516 122.428467,34.7939012 122.423243,34.213097 C122.430955,33.9997404 122.430955,22.2734487 122.430955,21.9599709 C122.434438,21.524683 122.213279,21.1753935 121.911269,20.9690983 C121.609011,20.7572549 121.227891,20.6659604 120.846026,20.6624297 C120.457443,20.6659604 120.069358,20.762551 119.759139,20.9690983 C119.451159,21.1743847 119.224776,21.5138386 119.225768,21.9410563 L119.225768,35.8173068 C119.225768,36.5943183 119.438969,37.4989403 119.999453,38.2252607 C120.558445,38.9477982 121.472684,39.4766503 122.797645,39.4766503 M116.004171,24.1384279 C116.943038,24.1384279 117.706272,23.3593988 117.706272,22.3982852 C117.706272,21.4366671 116.943038,20.6596556 116.004171,20.6596556 C115.064806,20.6596556 114.302816,21.4366671 114.302816,22.3982852 C114.302816,23.3593988 115.064806,24.1384279 116.004171,24.1384279" id="Fill-6" fill="#FFFFFF"></path>
                        </g>
                        <g id="Group-14" transform="translate(11.443531, 25.406084)">
                            <path d="M26.8913525,19.0203643 C26.3069861,19.0203643 25.7353071,18.9653859 25.1807934,18.8604729 C20.884245,18.0471454 17.6320432,14.5567723 17.6320432,9.96481333 C17.6320432,6.69611931 20.245895,3.71517931 23.4702342,3.71517931 C24.0655466,3.71517931 24.6397134,3.80571716 25.1807934,3.97342656 C22.7910856,4.71462645 21.0531615,6.96848946 21.0531615,9.63368184 C21.0531615,12.2993786 22.7910856,14.5527372 25.1807934,15.2941893 C25.7218734,15.4621509 26.2960401,15.5521844 26.8913525,15.5521844 C30.1156917,15.5521844 32.7295435,12.5714966 32.7295435,9.30255035 C32.7295435,4.71084353 29.4773417,1.22072266 25.1807934,0.406890738 C25.7353071,0.30197779 26.3069861,0.247251565 26.8913525,0.247251565 C30.856536,0.247251565 34.2390945,2.77424131 35.5588322,6.32614985 L35.5588322,12.941466 C34.2390945,16.4933746 30.856536,19.0203643 26.8913525,19.0203643" id="Fill-9" fill="#CDCBCA"></path>
                            <g id="Group-13">
                                <mask id="mask-4" fill="white">
                                    <use xlink:href="#path-3"></use>
                                </mask>
                                <g id="Clip-12"></g>
                                <path d="M45.3583263,15.2859676 L39.2857915,15.2859676 C39.1151336,15.2859676 38.9770649,15.1457474 38.9770649,14.9729941 L38.9770649,0.829165355 C38.9770649,0.656412067 38.8389962,0.516191879 38.6683383,0.516191879 L35.8674096,0.516191879 C35.6970005,0.516191879 35.5586831,0.656412067 35.5586831,0.829165355 L35.5586831,18.1256786 C35.5586831,18.4711852 35.8350692,18.7511211 36.1761362,18.7511211 L45.3583263,18.7511211 C45.5289842,18.7511211 45.6670529,18.6114053 45.6670529,18.4386521 L45.6670529,15.5986889 C45.6670529,15.4259356 45.5289842,15.2859676 45.3583263,15.2859676 M25.1808917,0.40699163 C24.626378,0.302078681 24.054699,0.24710026 23.4703327,0.24710026 C19.0277551,0.24710026 15.3160709,3.41844724 14.4180025,7.65027246 C14.3876523,7.79377119 14.2617735,7.89515341 14.1172367,7.89515341 L9.61097344,7.89515341 C9.44056434,7.89515341 9.30199811,8.0353736 9.30199811,8.20837909 L9.30199811,11.0475858 C9.30199811,11.2208435 9.44056434,11.3608115 9.61097344,11.3608115 L13.5691911,11.3608115 C13.7396002,11.3608115 13.8779177,11.5007795 13.8779177,11.673785 L13.8779177,13.0827961 C13.8779177,13.2325997 13.8249291,13.378116 13.7281567,13.4918558 C12.6579378,14.7530809 11.0722625,15.5520334 9.30199811,15.5520334 C6.07815657,15.5520334 3.46455372,12.902477 3.46455372,9.63353072 C3.46455372,6.36508883 6.07815657,3.71578466 9.30199811,3.71578466 C10.2087735,3.71578466 11.0670383,3.92535836 11.832511,4.29911075 C11.9775453,4.36997743 12.151686,4.31878192 12.2340296,4.17830954 L13.6701927,1.72823909 C13.7604971,1.57364381 13.7052696,1.37314911 13.5480455,1.29068148 C12.2760722,0.624131173 10.8326947,0.24710026 9.30199811,0.24710026 C4.18848141,0.24710026 0.0429381188,4.44967092 0.0429381188,9.63353072 C0.0429381188,14.8181471 4.18848141,19.0207178 9.30199811,19.0207178 C12.0198366,19.0207178 14.4632791,17.83389 16.1569216,15.9434394 C16.2803127,15.8059933 16.4922668,15.8059933 16.6156579,15.9434394 C18.3095492,17.8336378 20.7529917,19.0207178 23.4703327,19.0207178 C24.054699,19.0207178 24.626378,18.9654872 25.1808917,18.8605742 C20.8843436,18.0467423 17.632142,14.5566213 17.632142,9.96491442 C17.632142,6.69622033 20.2459936,3.71528027 23.4703327,3.71528027 C24.0653963,3.71528027 24.6398117,3.80581813 25.1808917,3.97352753 C27.5703506,4.71472743 29.3085234,6.96859049 29.3085234,9.63403511 C29.3085234,12.2989754 27.5703506,14.5530906 25.1808917,15.2940383 C25.7217229,15.4617477 26.2961384,15.5525378 26.8914507,15.5525378 C30.1157898,15.5525378 32.7296414,12.5710933 32.7296414,9.30239923 C32.7296414,4.71069232 29.4774398,1.22082357 25.1808917,0.40699163" id="Fill-11" fill="#F37126" mask="url(#mask-4)"></path>
                            </g>
                        </g>
                    </g>
                </g>
            </g>
        </g>
    </g>
</svg>