<?xml version="1.0" encoding="UTF-8"?>
<svg width="156px" height="51px" viewBox="0 0 156 51" version="1.1" xmlns="http://www.w3.org/2000/svg" xmlns:xlink="http://www.w3.org/1999/xlink">
    <!-- Generator: sketchtool 59.1 (101010) - https://sketch.com -->
    <title>7CFAC8BE-DBBA-45E0-B3D7-574B9880BDCE</title>
    <desc>Created with sketchtool.</desc>
    <defs>
        <linearGradient x1="61.026375%" y1="4.94732642%" x2="26.4997245%" y2="71.9162011%" id="linearGradient-1">
            <stop stop-color="#00A0FF" offset="0%"></stop>
            <stop stop-color="#00A1FF" offset="0.657445%"></stop>
            <stop stop-color="#00BEFF" offset="26.01%"></stop>
            <stop stop-color="#00D2FF" offset="51.22%"></stop>
            <stop stop-color="#00DFFF" offset="76.04%"></stop>
            <stop stop-color="#00E3FF" offset="100%"></stop>
        </linearGradient>
        <linearGradient x1="107.621063%" y1="50.0175234%" x2="-130.537402%" y2="50.0175234%" id="linearGradient-2">
            <stop stop-color="#FFE000" offset="0%"></stop>
            <stop stop-color="#FFBD00" offset="40.87%"></stop>
            <stop stop-color="#FFA500" offset="77.54%"></stop>
            <stop stop-color="#FF9C00" offset="100%"></stop>
        </linearGradient>
        <linearGradient x1="86.2523981%" y1="30.8970179%" x2="-50.1882494%" y2="136.080795%" id="linearGradient-3">
            <stop stop-color="#FF3A44" offset="0%"></stop>
            <stop stop-color="#C31162" offset="100%"></stop>
        </linearGradient>
        <linearGradient x1="-18.7705213%" y1="-11.8318633%" x2="42.1198322%" y2="35.0813417%" id="linearGradient-4">
            <stop stop-color="#32A071" offset="0%"></stop>
            <stop stop-color="#2DA771" offset="6.85%"></stop>
            <stop stop-color="#15CF74" offset="47.62%"></stop>
            <stop stop-color="#06E775" offset="80.09%"></stop>
            <stop stop-color="#00F076" offset="100%"></stop>
        </linearGradient>
    </defs>
    <g id="Page-1" stroke="none" stroke-width="1" fill="none" fill-rule="evenodd">
        <g id="Smiles---menu" transform="translate(-890.000000, -2999.000000)">
            <g id="Group-2" transform="translate(-0.000000, 2585.000000)">
                <g id="google-play" transform="translate(890.000000, 414.000000)">
                    <path d="M149.5,51 L5.74999988,51 C2.58749995,51 -1.42108547e-14,48.13125 -1.42108547e-14,44.625 L-1.42108547e-14,6.375 C-1.42108547e-14,2.86875 2.58749995,0 5.74999988,0 L149.5,0 C152.662497,0 155.249997,2.86875 155.249997,6.375 L155.249997,44.625 C155.249997,48.13125 152.662497,51 149.5,51 Z" id="Path" fill="#231F20" fill-rule="nonzero"></path>
                    <text id="Disponível-na-Copy" font-family="ProductSans-Bold, Product Sans" font-size="12.5" font-weight="bold" fill="#BBBCBC">
                        <tspan x="48" y="16">Disponível na</tspan>
                    </text>
                    <path d="M80.9650861,27.5196712 C78.1932059,27.5196712 75.9285209,29.6218438 75.9285209,32.5108632 C75.9285209,35.3881386 78.1932059,37.5020552 80.9650861,37.5020552 C83.7369663,37.5020552 86.0016513,35.3881386 86.0016513,32.5108632 C86.0016513,29.6218438 83.7369663,27.5196712 80.9650861,27.5196712 Z M80.9650861,35.5408103 C79.4435008,35.5408103 78.1342298,34.2959483 78.1342298,32.5108632 C78.1342298,30.7140341 79.4435008,29.480916 80.9650861,29.480916 C82.4866714,29.480916 83.7959424,30.7140341 83.7959424,32.5108632 C83.7959424,34.2959483 82.4748762,35.5408103 80.9650861,35.5408103 Z M69.9719273,27.5196712 C67.2000472,27.5196712 64.9353621,29.6218438 64.9353621,32.5108632 C64.9353621,35.3881386 67.2000472,37.5020552 69.9719273,37.5020552 C72.7438075,37.5020552 75.0084926,35.3881386 75.0084926,32.5108632 C75.0084926,29.6218438 72.7438075,27.5196712 69.9719273,27.5196712 Z M69.9719273,35.5408103 C68.4503421,35.5408103 67.141071,34.2959483 67.141071,32.5108632 C67.141071,30.7140341 68.4503421,29.480916 69.9719273,29.480916 C71.4935126,29.480916 72.8027837,30.7140341 72.8027837,32.5108632 C72.8027837,34.2959483 71.4935126,35.5408103 69.9719273,35.5408103 Z M56.9028073,29.0581327 L56.9028073,31.1720493 L61.9983487,31.1720493 C61.8450106,32.3581914 61.4439726,33.23899 60.8424157,33.8379331 C60.0993159,34.5778039 58.9433829,35.3881386 56.9146025,35.3881386 C53.7770701,35.3881386 51.3236612,32.8749266 51.3236612,29.7510276 C51.3236612,26.6271286 53.7770701,24.1139166 56.9146025,24.1139166 C58.6013211,24.1139166 59.8398207,24.7715796 60.7480538,25.6288902 L62.2460486,24.1374046 C60.9721632,22.9277745 59.2854447,22 56.9028073,22 C52.6093418,22 49,25.4762184 49,29.7627716 C49,34.0375807 52.6093418,37.5255432 56.9028073,37.5255432 C59.2264685,37.5255432 60.9721632,36.7739284 62.3404105,35.3529066 C63.7440434,33.9553729 64.1804671,31.982384 64.1804671,30.3969466 C64.1804671,29.9036994 64.1450814,29.4456841 64.0625147,29.0698767 L56.9028073,29.0698767 L56.9028073,29.0581327 Z M110.347016,30.7022901 C109.934183,29.5866119 108.660297,27.5196712 106.05355,27.5196712 C103.470394,27.5196712 101.323661,29.5396359 101.323661,32.5108632 C101.323661,35.3059307 103.446803,37.5020552 106.30125,37.5020552 C108.601321,37.5020552 109.934183,36.1045214 110.476763,35.2941867 L108.766454,34.1550206 C108.200283,34.9888432 107.421798,35.5408103 106.30125,35.5408103 C105.180703,35.5408103 104.378627,35.0240752 103.871432,34.0258368 L110.582921,31.2660012 L110.347016,30.7022901 Z M103.50578,32.3699354 C103.446803,30.4439225 105.003774,29.4574281 106.124322,29.4574281 C106.997169,29.4574281 107.740269,29.8919554 107.987969,30.5143864 L103.50578,32.3699354 Z M98.0563812,37.2084557 L100.26209,37.2084557 L100.26209,22.5284792 L98.0563812,22.5284792 L98.0563812,37.2084557 Z M94.4470394,28.6353494 L94.3644728,28.6353494 C93.8690729,28.0481503 92.9254541,27.5196712 91.7223402,27.5196712 C89.2099552,27.5196712 86.9098844,29.7157957 86.9098844,32.5343511 C86.9098844,35.3294187 89.2099552,37.5137992 91.7223402,37.5137992 C92.9136589,37.5137992 93.8690729,36.98532 94.3644728,36.374633 L94.4352442,36.374633 L94.4352442,37.0910159 C94.4352442,39.0052848 93.4090587,40.0270112 91.7577259,40.0270112 C90.4130691,40.0270112 89.5756075,39.0640047 89.2335456,38.25367 L87.3109224,39.0522607 C87.8652984,40.3793306 89.3279075,42 91.7577259,42 C94.3408823,42 96.5230007,40.4850264 96.5230007,36.7974163 L96.5230007,27.8250147 L94.4352442,27.8250147 L94.4352442,28.6353494 L94.4470394,28.6353494 Z M91.9110639,35.5408103 C90.3894787,35.5408103 89.1155933,34.2724604 89.1155933,32.5343511 C89.1155933,30.772754 90.3894787,29.49266 91.9110639,29.49266 C93.4090587,29.49266 94.5885822,30.7844979 94.5885822,32.5343511 C94.6003774,34.2724604 93.420854,35.5408103 91.9110639,35.5408103 Z M120.679641,22.5284792 L115.407172,22.5284792 L115.407172,37.2084557 L117.61288,37.2084557 L117.61288,31.6418086 L120.691437,31.6418086 C123.13305,31.6418086 125.527483,29.8802114 125.527483,27.0851439 C125.527483,24.2900763 123.10946,22.5284792 120.679641,22.5284792 Z M120.726822,29.5983558 L117.601085,29.5983558 L117.601085,24.5601879 L120.726822,24.5601879 C122.378155,24.5601879 123.309979,25.9224897 123.309979,27.0733999 C123.309979,28.22431 122.378155,29.5983558 120.726822,29.5983558 Z M134.338523,27.4961832 C132.746167,27.4961832 131.094834,28.2008221 130.41071,29.7392836 L132.368719,30.5496183 C132.781552,29.7392836 133.560038,29.469172 134.373909,29.469172 C135.518047,29.469172 136.67398,30.150323 136.685775,31.359953 L136.685775,31.5126248 C136.284737,31.2894891 135.43548,30.9489137 134.385704,30.9489137 C132.274357,30.9489137 130.13942,32.0998238 130.13942,34.2489724 C130.13942,36.2102173 131.861524,37.4785672 133.795942,37.4785672 C135.270347,37.4785672 136.096013,36.8209043 136.603208,36.0458015 L136.67398,36.0458015 L136.67398,37.1849677 L138.797175,37.1849677 L138.797175,31.5596007 C138.808917,28.9524369 136.850908,27.4961832 134.338523,27.4961832 Z M134.067233,35.5408103 C133.347724,35.5408103 132.345129,35.1767469 132.345129,34.2959483 C132.345129,33.1685261 133.595423,32.7339988 134.680585,32.7339988 C135.647794,32.7339988 136.107808,32.9453905 136.685775,33.227246 C136.520642,34.5778039 135.341118,35.5408103 134.067233,35.5408103 Z M146.546591,27.8132707 L144.022411,34.1785085 L143.95164,34.1785085 L141.333097,27.8132707 L138.962255,27.8132707 L142.890068,36.7152085 L140.648974,41.6594245 L142.949045,41.6594245 L149,27.8132707 L146.546591,27.8132707 Z M126.730597,37.2084557 L128.936306,37.2084557 L128.936306,22.5284792 L126.730597,22.5284792 L126.730597,37.2084557 Z" id="Shape" fill="#FFFFFF" fill-rule="nonzero"></path>
                    <g id="Group" transform="translate(10.000000, 10.000000)" fill-rule="nonzero">
                        <path d="M1.65599997,0.620999987 C1.32249997,0.97749998 1.12699998,1.52949997 1.12699998,2.23099995 L1.12699998,27.6689994 C1.12699998,28.3819994 1.32249997,28.9339994 1.65599997,29.2789994 L1.73649996,29.3594994 L15.9849997,15.1224997 L15.9849997,14.9499997 L15.9849997,14.7774997 L1.73649996,0.540499989 L1.65599997,0.620999987 Z" id="Path" fill="url(#linearGradient-1)"></path>
                        <path d="M20.7344996,19.8719996 L15.9849997,15.1224997 L15.9849997,14.9499997 L15.9849997,14.7774997 L20.7344996,10.0279998 L20.8379996,10.0854998 L26.4614995,13.2824997 C28.0714994,14.1909997 28.0714994,15.6859997 26.4614995,16.6059997 L20.8379996,19.8029996 L20.7344996,19.8719996 Z" id="Path" fill="url(#linearGradient-2)"></path>
                        <path d="M20.8379996,19.8144996 L15.9849997,14.9499997 L1.65599997,29.2789994 C2.18499995,29.8424994 3.05899994,29.9114994 4.04799992,29.3479994 L20.8379996,19.8144996" id="Path" fill="url(#linearGradient-3)"></path>
                        <path d="M20.8379996,10.0969998 L4.03649992,0.551999989 C3.04749994,-0.0114999998 2.17349995,0.0574999988 1.64449997,0.620999987 L15.9849997,14.9499997 L20.8379996,10.0969998 Z" id="Path" fill="url(#linearGradient-4)"></path>
                        <g transform="translate(0.000000, 19.550000)" fill="#000000" id="Path">
                            <path d="M20.7344996,0.149499997 L4.03649992,9.6369998 C3.10499994,10.1659998 2.26549995,10.1314998 1.73649996,9.6484998 L1.73649996,9.6484998 L1.65599997,9.7289998 L1.65599997,9.7289998 L1.73649996,9.8094998 L1.73649996,9.8094998 C2.27699995,10.2924998 3.10499994,10.3269998 4.03649992,9.7979998 L20.8379996,0.252999995 L20.7344996,0.149499997 Z" opacity="0.2"></path>
                            <path d="M1.65599997,9.5679998 C1.32249997,9.21149981 1.12699998,8.65949982 1.12699998,7.95799984 L1.12699998,8.13049983 C1.12699998,8.84349982 1.32249997,9.39549981 1.65599997,9.7404998 L1.73649996,9.6599998 L1.65599997,9.5679998 Z" opacity="0.12"></path>
                        </g>
                        <path d="M26.4614995,16.4449997 L20.7229996,19.6994996 L20.8264996,19.8029996 L26.4499995,16.6059997 C27.2549994,16.1459997 27.6574994,15.5479997 27.6574994,14.9499997 L27.6574994,14.9499997 C27.5999994,15.4904997 27.1974994,16.0309997 26.4614995,16.4449997 Z" id="Path" fill="#000000" opacity="0.12"></path>
                        <path d="M4.03649992,0.712999985 L26.4614995,13.4549997 C27.1859994,13.8689997 27.5999994,14.3979997 27.6689994,14.9499997 L27.6689994,14.9499997 C27.6689994,14.3519997 27.2664994,13.7424997 26.4614995,13.2939997 L4.03649992,0.551999989 C2.42649995,-0.356499993 1.11549998,0.402499992 1.11549998,2.24249995 L1.11549998,2.41499995 C1.11549998,0.563499988 2.43799995,-0.195499996 4.03649992,0.712999985 Z" id="Path" fill="#FFFFFF" opacity="0.25"></path>
                    </g>
                </g>
            </g>
        </g>
    </g>
</svg>