<?xml version="1.0" encoding="UTF-8"?>
<svg width="24px" height="24px" viewBox="0 0 24 24" version="1.1" xmlns="http://www.w3.org/2000/svg" xmlns:xlink="http://www.w3.org/1999/xlink">
    <!-- Generator: sketchtool 59.1 (101010) - https://sketch.com -->
    <title>AE43AAF8-7A33-4E55-BA93-1E6DAD172D5C</title>
    <desc>Created with sketchtool.</desc>
    <g id="Page-1" stroke="none" stroke-width="1" fill="none" fill-rule="evenodd">
        <g id="Smiles---menu" transform="translate(-957.000000, -3266.000000)" fill="#231F20" fill-rule="nonzero">
            <g id="Group-2" transform="translate(-0.000000, 2585.000000)">
                <g id="Group-8" transform="translate(937.000000, 586.000000)">
                    <path d="M32,95 C25.3735962,95 20,100.373596 20,107 C20,113.626404 25.3735962,119 32,119 C38.6264038,119 44,113.626404 44,107 C44,100.373596 38.6264038,95 32,95 Z M28.5129395,113.140625 L25.5903931,113.140625 L25.5903931,104.348083 L28.5129395,104.348083 L28.5129395,113.140625 Z M27.0517578,103.147461 L27.0327148,103.147461 C26.052002,103.147461 25.4177246,102.472351 25.4177246,101.628601 C25.4177246,100.765808 26.0714112,100.109375 27.071167,100.109375 C28.0709229,100.109375 28.6861573,100.765808 28.7052002,101.628601 C28.7052002,102.472351 28.0709229,103.147461 27.0517578,103.147461 Z M39.0510254,113.140625 L36.1288452,113.140625 L36.1288452,108.436829 C36.1288452,107.2547 35.7056885,106.448486 34.6482544,106.448486 C33.8409424,106.448486 33.3601074,106.99231 33.1488037,107.517273 C33.0715332,107.705139 33.0526733,107.967712 33.0526733,108.230469 L33.0526733,113.140625 L30.13031,113.140625 C30.13031,113.140625 30.1685791,105.172974 30.13031,104.348083 L33.0526733,104.348083 L33.0526733,105.593018 C33.4410401,104.993896 34.1359253,104.141724 35.6864624,104.141724 C37.6092529,104.141724 39.0510254,105.398376 39.0510254,108.098999 L39.0510254,113.140625 Z" id="linkedin"></path>
                </g>
            </g>
        </g>
    </g>
</svg>