<?xml version="1.0" encoding="UTF-8"?>
<svg width="18px" height="18px" viewBox="0 0 18 18" version="1.1" xmlns="http://www.w3.org/2000/svg" xmlns:xlink="http://www.w3.org/1999/xlink">
    <!-- Generator: sketchtool 59.1 (101010) - https://sketch.com -->
    <title>92AE0D96-7809-4549-90A3-86C2EE8662BD</title>
    <desc>Created with sketchtool.</desc>
    <g id="Page-1" stroke="none" stroke-width="1" fill="none" fill-rule="evenodd">
        <g id="Smiles---menu" transform="translate(-610.000000, -66.000000)" fill="#FFFFFF" fill-rule="nonzero" stroke="#FFFFFF" stroke-width="0.5">
            <g id="menu" transform="translate(-0.000000, 0.000000)">
                <g id="Mais-Produtos" transform="translate(611.000000, 60.000000)">
                    <path d="M15.8629378,22.1845117 L11.9737159,18.298995 C14.3851418,15.5249544 14.1656115,11.3394612 11.4772142,8.83285641 C8.78881686,6.32625159 4.5978078,6.3994511 1.99860057,8.99840839 C-0.600606657,11.5973657 -0.673813202,15.7879717 1.83303267,18.4761105 C4.33987855,21.1642493 8.52577422,21.3837586 11.3000816,18.9725645 L15.185972,22.8580812 C15.2753243,22.9478685 15.3964501,22.9988513 15.5231223,23 C15.6501426,23.0005657 15.7719031,22.9493157 15.8602726,22.8580812 C16.0455324,22.6721923 16.0467208,22.3718605 15.8629378,22.1845117 Z M0.967024628,13.8278525 C0.967024628,10.5898514 3.59219558,7.96493292 6.83050806,7.96493292 C10.0688205,7.96493292 12.6939915,10.5898514 12.6939915,13.8278525 C12.6939915,17.0658536 10.0688205,19.6907721 6.83050806,19.6907721 C3.59310939,19.6885673 0.969229691,17.0649399 0.967024628,13.8278525 Z" id="search-white"></path>
                </g>
            </g>
        </g>
    </g>
</svg>