<?xml version="1.0" encoding="UTF-8"?>
<svg width="24px" height="24px" viewBox="0 0 24 24" version="1.1" xmlns="http://www.w3.org/2000/svg" xmlns:xlink="http://www.w3.org/1999/xlink">
    <!-- Generator: sketchtool 59.1 (101010) - https://sketch.com -->
    <title>0B7AADEA-F33B-4B1B-A2DE-1971B469E8DE</title>
    <desc>Created with sketchtool.</desc>
    <g id="Page-1" stroke="none" stroke-width="1" fill="none" fill-rule="evenodd">
        <g id="Smiles---menu" transform="translate(-1107.000000, -3266.000000)" fill="#231F20" fill-rule="nonzero">
            <g id="Group-2" transform="translate(-0.000000, 2585.000000)">
                <g id="Group-8" transform="translate(937.000000, 586.000000)">
                    <path d="M182,119 C188.624,119 194,113.624 194,107 C194,100.376 188.624,95 182,95 C175.376,95 170,100.376 170,107 C170,113.624 175.376,119 182,119 Z M186.872,112.656 L186.872,112.657 C186.065,112.657 183.516,109.829 176.352,111.297 C176.163,111.346 175.916,111.423 175.776,111.423 C174.861,111.423 174.686,110.054 175.67,109.845 C179.633,108.97 183.683,109.047 187.137,111.113 C187.961,111.639 187.611,112.656 186.872,112.656 L186.872,112.656 Z M188.175,109.483 C188.062,109.453 188.095,109.552 187.578,109.28 C184.553,107.49 180.045,106.768 176.033,107.857 C175.801,107.92 175.675,107.983 175.457,107.983 C174.386,107.983 174.102,106.372 175.269,106.043 C179.985,104.718 185.044,105.491 188.566,107.586 C188.958,107.818 189.113,108.119 189.113,108.539 C189.108,109.061 188.702,109.483 188.175,109.483 L188.175,109.483 Z M174.548,101.998 C179.071,100.674 185.916,101.092 190.172,103.576 C191.263,104.205 190.834,105.796 189.674,105.796 L189.673,105.795 C189.421,105.795 189.266,105.732 189.048,105.606 C185.605,103.55 179.444,103.057 175.458,104.17 C175.283,104.218 175.065,104.295 174.833,104.295 C174.194,104.295 173.706,103.796 173.706,103.153 C173.706,102.496 174.113,102.124 174.548,101.998 L174.548,101.998 Z" id="spotify"></path>
                </g>
            </g>
        </g>
    </g>
</svg>