<?xml version="1.0" encoding="UTF-8"?>
<svg width="24px" height="24px" viewBox="0 0 24 24" version="1.1" xmlns="http://www.w3.org/2000/svg" xmlns:xlink="http://www.w3.org/1999/xlink">
    <!-- Generator: sketchtool 59.1 (101010) - https://sketch.com -->
    <title>3A775979-8B6E-4582-9A17-C8AAB026CFC6</title>
    <desc>Created with sketchtool.</desc>
    <g id="Page-1" stroke="none" stroke-width="1" fill="none" fill-rule="evenodd">
        <g id="Smiles---menu" transform="translate(-1032.000000, -3191.000000)" fill="#231F20" fill-rule="nonzero">
            <g id="Group-2" transform="translate(-0.000000, 2585.000000)">
                <g id="Group-8" transform="translate(937.000000, 586.000000)">
                    <path d="M107,20 C100.373596,20 95,25.3735962 95,32 C95,38.6264038 100.373596,44 107,44 C113.626404,44 119,38.6264038 119,32 C119,25.3735962 113.626404,20 107,20 Z M112.479065,29.3563232 C112.484375,29.4744263 112.486939,29.5930786 112.486939,29.7122802 C112.486939,33.3518677 109.716553,37.5488281 104.650208,37.5490112 L104.650391,37.5490112 L104.650208,37.5490112 C103.094727,37.5490112 101.647278,37.0930786 100.428345,36.3117676 C100.64386,36.3372193 100.86322,36.3498535 101.085327,36.3498535 C102.375854,36.3498535 103.563477,35.909668 104.506287,35.1708374 C103.300537,35.1484985 102.283936,34.3521729 101.933105,33.2577515 C102.101013,33.289978 102.273682,33.3075561 102.450745,33.3075561 C102.702148,33.3075561 102.945679,33.2736816 103.177124,33.2105103 C101.916809,32.9581909 100.967407,31.8443604 100.967407,30.5106201 C100.967407,30.498169 100.967407,30.4869995 100.967773,30.4754638 C101.338928,30.6818237 101.763367,30.8059693 102.215271,30.8198853 C101.475708,30.326416 100.989563,29.4828491 100.989563,28.5272217 C100.989563,28.022583 101.125977,27.5498047 101.362549,27.1427612 C102.720825,28.8093872 104.750732,29.9054565 107.039917,30.0206299 C106.992676,29.8188477 106.968323,29.6086426 106.968323,29.3925781 C106.968323,27.8720703 108.201904,26.6384888 109.722961,26.6384888 C110.515259,26.6384888 111.230835,26.9733887 111.733459,27.5087891 C112.360962,27.3850098 112.950195,27.1557617 113.482483,26.840271 C113.276489,27.4831543 112.839966,28.022583 112.27124,28.3637085 C112.82843,28.2970581 113.359436,28.149292 113.852905,27.9299316 C113.484314,28.4823608 113.016846,28.9675903 112.479065,29.3563232 Z" id="twitter"></path>
                </g>
            </g>
        </g>
    </g>
</svg>