<?xml version="1.0" encoding="UTF-8"?>
<svg width="24px" height="24px" viewBox="0 0 24 24" version="1.1" xmlns="http://www.w3.org/2000/svg" xmlns:xlink="http://www.w3.org/1999/xlink">
    <!-- Generator: sketchtool 59.1 (101010) - https://sketch.com -->
    <title>02AF8FA4-1B67-43BE-A65C-1D45A8889CF1</title>
    <desc>Created with sketchtool.</desc>
    <g id="Page-1" stroke="none" stroke-width="1" fill="none" fill-rule="evenodd">
        <g id="Smiles---menu" transform="translate(-1032.000000, -3266.000000)" fill="#231F20" fill-rule="nonzero">
            <g id="Group-2" transform="translate(-0.000000, 2585.000000)">
                <g id="Group-8" transform="translate(937.000000, 586.000000)">
                    <path d="M107,95 C113.626404,95 119,100.373596 119,107 C119,113.626404 113.626404,119 107,119 C100.373596,119 95,113.626404 95,107 C95,100.373596 100.373596,95 107,95 Z M107.192273,101.750572 L106.807727,101.75055 C105.913764,101.754538 102.163663,101.787442 101.132385,102.058899 C100.502319,102.231751 99.9833984,102.750671 99.8105469,103.393005 C99.5254094,104.476257 99.5034757,106.633075 99.5017885,106.958483 L99.5017885,107.041721 C99.5034757,107.368693 99.5254094,109.535236 99.8105469,110.606995 C99.9835815,111.249329 100.490051,111.755981 101.132385,111.928833 C102.318176,112.25 107,112.25 107,112.25 C107,112.25 111.694092,112.25 112.867615,111.941101 C113.509949,111.768249 114.016418,111.26178 114.189453,110.619446 C114.474481,109.536194 114.496406,107.37922 114.498093,107.053788 L114.498197,106.920295 C114.496651,106.464804 114.473562,104.431122 114.189453,103.393005 C114.016418,102.750671 113.509949,102.244019 112.867615,102.071167 C111.836337,101.788929 108.086236,101.754719 107.192273,101.750572 Z M105.50531,104.751831 L109.408752,107 L105.50531,109.248169 L105.50531,104.751831 Z" id="youtube"></path>
                </g>
            </g>
        </g>
    </g>
</svg>